
<svg viewBox="0 0 460.775 460.775" fill="#000000" xmlns="http://www.w3.org/2000/svg">
  <path d="M 262.591 230.393 L 363.357 134.949 C 366.934 131.559 366.934 126.074 363.357 122.686 L 344.099 104.437 C 342.384 102.814 340.056 101.9 337.627 101.9 C 335.197 101.9 332.869 102.814 331.154 104.437 L 230.388 199.889 L 129.622 104.437 C 127.906 102.814 125.579 101.9 123.149 101.9 C 120.72 101.9 118.391 102.814 116.677 104.437 L 97.419 122.686 C 93.841 126.074 93.841 131.559 97.419 134.949 L 198.185 230.393 L 97.429 325.826 C 93.853 329.216 93.853 334.7 97.429 338.089 L 116.688 356.337 C 118.402 357.961 120.73 358.875 123.16 358.875 C 125.59 358.875 127.918 357.961 129.633 356.337 L 230.387 260.897 L 331.142 356.337 C 332.857 357.961 335.184 358.875 337.614 358.875 C 340.045 358.875 342.373 357.961 344.087 356.337 L 363.346 338.089 C 366.922 334.7 366.922 329.216 363.346 325.826 L 262.591 230.393 Z" style="transform-origin: 230.388px 230.388px;"/>
</svg>